<svg xmlns="http://www.w3.org/2000/svg" version="1.1" xmlns:xlink="http://www.w3.org/1999/xlink" xmlns:svgjs="http://svgjs.dev/svgjs" width="1440" height="560" preserveAspectRatio="none" viewBox="0 0 1440 560"><g mask="url(&quot;#SvgjsMask1000&quot;)" fill="none"><rect width="1440" height="560" x="0" y="0" fill="#0e2a47"></rect><path d="M70.5 218.93L135.45 256.43L135.45 331.43L70.5 368.93L5.55 331.43L5.55 256.43zM200.41 218.93L265.36 256.43L265.36 331.43L200.41 368.93L135.45 331.43L135.45 256.43zM330.31 -6.07L395.27 31.43L395.27 106.43L330.31 143.93L265.36 106.43L265.36 31.43zM395.27 106.43L460.22 143.93L460.22 218.93L395.27 256.43L330.31 218.93L330.31 143.93zM395.27 331.43L460.22 368.93L460.22 443.93L395.27 481.43L330.31 443.93L330.31 368.93zM330.31 443.93L395.27 481.43L395.27 556.43L330.31 593.93L265.36 556.43L265.36 481.43zM460.22 -6.07L525.18 31.43L525.18 106.43L460.22 143.93L395.27 106.43L395.27 31.43zM460.22 218.93L525.18 256.43L525.18 331.43L460.22 368.93L395.27 331.43L395.27 256.43zM525.18 331.43L590.13 368.93L590.13 443.93L525.18 481.43L460.22 443.93L460.22 368.93zM525.18 556.43L590.13 593.93L590.13 668.93L525.18 706.43L460.22 668.93L460.22 593.93zM590.13 -6.07L655.08 31.43L655.08 106.43L590.13 143.93L525.18 106.43L525.18 31.43zM655.08 106.43L720.04 143.93L720.04 218.93L655.08 256.43L590.13 218.93L590.13 143.93zM655.08 331.43L720.04 368.93L720.04 443.93L655.08 481.43L590.13 443.93L590.13 368.93zM590.13 443.93L655.08 481.43L655.08 556.43L590.13 593.93L525.18 556.43L525.18 481.43zM784.99 106.43L849.95 143.93L849.95 218.93L784.99 256.43L720.04 218.93L720.04 143.93zM784.99 331.43L849.95 368.93L849.95 443.93L784.99 481.43L720.04 443.93L720.04 368.93zM914.9 331.43L979.85 368.93L979.85 443.93L914.9 481.43L849.94 443.93L849.94 368.93zM914.9 556.43L979.85 593.93L979.85 668.93L914.9 706.43L849.94 668.93L849.94 593.93zM1044.81 556.43L1109.76 593.93L1109.76 668.93L1044.81 706.43L979.85 668.93L979.85 593.93zM1109.76 218.93L1174.71 256.43L1174.71 331.43L1109.76 368.93L1044.81 331.43L1044.81 256.43zM1239.67 218.93L1304.62 256.43L1304.62 331.43L1239.67 368.93L1174.71 331.43L1174.71 256.43zM1239.67 443.93L1304.62 481.43L1304.62 556.43L1239.67 593.93L1174.71 556.43L1174.71 481.43zM1304.62 556.43L1369.57 593.93L1369.57 668.93L1304.62 706.43L1239.67 668.93L1239.67 593.93zM1369.58 -6.07L1434.53 31.43L1434.53 106.43L1369.58 143.93L1304.62 106.43L1304.62 31.43zM1434.53 106.43L1499.48 143.93L1499.48 218.93L1434.53 256.43L1369.58 218.93L1369.58 143.93zM1434.53 331.43L1499.48 368.93L1499.48 443.93L1434.53 481.43L1369.58 443.93L1369.58 368.93zM1499.48 -6.07L1564.44 31.43L1564.44 106.43L1499.48 143.93L1434.53 106.43L1434.53 31.43zM1564.44 556.43L1629.39 593.93L1629.39 668.93L1564.44 706.43L1499.48 668.93L1499.48 593.93z" stroke="#03305d" stroke-width="2"></path><path d="M63 218.93 a7.5 7.5 0 1 0 15 0 a7.5 7.5 0 1 0 -15 0zM127.95 256.43 a7.5 7.5 0 1 0 15 0 a7.5 7.5 0 1 0 -15 0zM127.95 331.43 a7.5 7.5 0 1 0 15 0 a7.5 7.5 0 1 0 -15 0zM63 368.93 a7.5 7.5 0 1 0 15 0 a7.5 7.5 0 1 0 -15 0zM-1.95 331.43 a7.5 7.5 0 1 0 15 0 a7.5 7.5 0 1 0 -15 0zM-1.95 256.43 a7.5 7.5 0 1 0 15 0 a7.5 7.5 0 1 0 -15 0zM192.91 218.93 a7.5 7.5 0 1 0 15 0 a7.5 7.5 0 1 0 -15 0zM257.86 256.43 a7.5 7.5 0 1 0 15 0 a7.5 7.5 0 1 0 -15 0zM257.86 331.43 a7.5 7.5 0 1 0 15 0 a7.5 7.5 0 1 0 -15 0zM192.91 368.93 a7.5 7.5 0 1 0 15 0 a7.5 7.5 0 1 0 -15 0zM322.81 -6.07 a7.5 7.5 0 1 0 15 0 a7.5 7.5 0 1 0 -15 0zM387.77 31.43 a7.5 7.5 0 1 0 15 0 a7.5 7.5 0 1 0 -15 0zM387.77 106.43 a7.5 7.5 0 1 0 15 0 a7.5 7.5 0 1 0 -15 0zM322.81 143.93 a7.5 7.5 0 1 0 15 0 a7.5 7.5 0 1 0 -15 0zM257.86 106.43 a7.5 7.5 0 1 0 15 0 a7.5 7.5 0 1 0 -15 0zM257.86 31.43 a7.5 7.5 0 1 0 15 0 a7.5 7.5 0 1 0 -15 0zM452.72 143.93 a7.5 7.5 0 1 0 15 0 a7.5 7.5 0 1 0 -15 0zM452.72 218.93 a7.5 7.5 0 1 0 15 0 a7.5 7.5 0 1 0 -15 0zM387.77 256.43 a7.5 7.5 0 1 0 15 0 a7.5 7.5 0 1 0 -15 0zM322.81 218.93 a7.5 7.5 0 1 0 15 0 a7.5 7.5 0 1 0 -15 0zM387.77 331.43 a7.5 7.5 0 1 0 15 0 a7.5 7.5 0 1 0 -15 0zM452.72 368.93 a7.5 7.5 0 1 0 15 0 a7.5 7.5 0 1 0 -15 0zM452.72 443.93 a7.5 7.5 0 1 0 15 0 a7.5 7.5 0 1 0 -15 0zM387.77 481.43 a7.5 7.5 0 1 0 15 0 a7.5 7.5 0 1 0 -15 0zM322.81 443.93 a7.5 7.5 0 1 0 15 0 a7.5 7.5 0 1 0 -15 0zM322.81 368.93 a7.5 7.5 0 1 0 15 0 a7.5 7.5 0 1 0 -15 0zM387.77 556.43 a7.5 7.5 0 1 0 15 0 a7.5 7.5 0 1 0 -15 0zM322.81 593.93 a7.5 7.5 0 1 0 15 0 a7.5 7.5 0 1 0 -15 0zM257.86 556.43 a7.5 7.5 0 1 0 15 0 a7.5 7.5 0 1 0 -15 0zM257.86 481.43 a7.5 7.5 0 1 0 15 0 a7.5 7.5 0 1 0 -15 0zM452.72 -6.07 a7.5 7.5 0 1 0 15 0 a7.5 7.5 0 1 0 -15 0zM517.68 31.43 a7.5 7.5 0 1 0 15 0 a7.5 7.5 0 1 0 -15 0zM517.68 106.43 a7.5 7.5 0 1 0 15 0 a7.5 7.5 0 1 0 -15 0zM517.68 256.43 a7.5 7.5 0 1 0 15 0 a7.5 7.5 0 1 0 -15 0zM517.68 331.43 a7.5 7.5 0 1 0 15 0 a7.5 7.5 0 1 0 -15 0zM582.63 368.93 a7.5 7.5 0 1 0 15 0 a7.5 7.5 0 1 0 -15 0zM582.63 443.93 a7.5 7.5 0 1 0 15 0 a7.5 7.5 0 1 0 -15 0zM517.68 481.43 a7.5 7.5 0 1 0 15 0 a7.5 7.5 0 1 0 -15 0zM517.68 556.43 a7.5 7.5 0 1 0 15 0 a7.5 7.5 0 1 0 -15 0zM582.63 593.93 a7.5 7.5 0 1 0 15 0 a7.5 7.5 0 1 0 -15 0zM582.63 668.93 a7.5 7.5 0 1 0 15 0 a7.5 7.5 0 1 0 -15 0zM517.68 706.43 a7.5 7.5 0 1 0 15 0 a7.5 7.5 0 1 0 -15 0zM452.72 668.93 a7.5 7.5 0 1 0 15 0 a7.5 7.5 0 1 0 -15 0zM452.72 593.93 a7.5 7.5 0 1 0 15 0 a7.5 7.5 0 1 0 -15 0zM582.63 -6.07 a7.5 7.5 0 1 0 15 0 a7.5 7.5 0 1 0 -15 0zM647.58 31.43 a7.5 7.5 0 1 0 15 0 a7.5 7.5 0 1 0 -15 0zM647.58 106.43 a7.5 7.5 0 1 0 15 0 a7.5 7.5 0 1 0 -15 0zM582.63 143.93 a7.5 7.5 0 1 0 15 0 a7.5 7.5 0 1 0 -15 0zM712.54 143.93 a7.5 7.5 0 1 0 15 0 a7.5 7.5 0 1 0 -15 0zM712.54 218.93 a7.5 7.5 0 1 0 15 0 a7.5 7.5 0 1 0 -15 0zM647.58 256.43 a7.5 7.5 0 1 0 15 0 a7.5 7.5 0 1 0 -15 0zM582.63 218.93 a7.5 7.5 0 1 0 15 0 a7.5 7.5 0 1 0 -15 0zM647.58 331.43 a7.5 7.5 0 1 0 15 0 a7.5 7.5 0 1 0 -15 0zM712.54 368.93 a7.5 7.5 0 1 0 15 0 a7.5 7.5 0 1 0 -15 0zM712.54 443.93 a7.5 7.5 0 1 0 15 0 a7.5 7.5 0 1 0 -15 0zM647.58 481.43 a7.5 7.5 0 1 0 15 0 a7.5 7.5 0 1 0 -15 0zM647.58 556.43 a7.5 7.5 0 1 0 15 0 a7.5 7.5 0 1 0 -15 0zM777.49 106.43 a7.5 7.5 0 1 0 15 0 a7.5 7.5 0 1 0 -15 0zM842.45 143.93 a7.5 7.5 0 1 0 15 0 a7.5 7.5 0 1 0 -15 0zM842.45 218.93 a7.5 7.5 0 1 0 15 0 a7.5 7.5 0 1 0 -15 0zM777.49 256.43 a7.5 7.5 0 1 0 15 0 a7.5 7.5 0 1 0 -15 0zM777.49 331.43 a7.5 7.5 0 1 0 15 0 a7.5 7.5 0 1 0 -15 0zM842.45 368.93 a7.5 7.5 0 1 0 15 0 a7.5 7.5 0 1 0 -15 0zM842.45 443.93 a7.5 7.5 0 1 0 15 0 a7.5 7.5 0 1 0 -15 0zM777.49 481.43 a7.5 7.5 0 1 0 15 0 a7.5 7.5 0 1 0 -15 0zM907.4 331.43 a7.5 7.5 0 1 0 15 0 a7.5 7.5 0 1 0 -15 0zM972.35 368.93 a7.5 7.5 0 1 0 15 0 a7.5 7.5 0 1 0 -15 0zM972.35 443.93 a7.5 7.5 0 1 0 15 0 a7.5 7.5 0 1 0 -15 0zM907.4 481.43 a7.5 7.5 0 1 0 15 0 a7.5 7.5 0 1 0 -15 0zM842.44 443.93 a7.5 7.5 0 1 0 15 0 a7.5 7.5 0 1 0 -15 0zM842.44 368.93 a7.5 7.5 0 1 0 15 0 a7.5 7.5 0 1 0 -15 0zM907.4 556.43 a7.5 7.5 0 1 0 15 0 a7.5 7.5 0 1 0 -15 0zM972.35 593.93 a7.5 7.5 0 1 0 15 0 a7.5 7.5 0 1 0 -15 0zM972.35 668.93 a7.5 7.5 0 1 0 15 0 a7.5 7.5 0 1 0 -15 0zM907.4 706.43 a7.5 7.5 0 1 0 15 0 a7.5 7.5 0 1 0 -15 0zM842.44 668.93 a7.5 7.5 0 1 0 15 0 a7.5 7.5 0 1 0 -15 0zM842.44 593.93 a7.5 7.5 0 1 0 15 0 a7.5 7.5 0 1 0 -15 0zM1037.31 556.43 a7.5 7.5 0 1 0 15 0 a7.5 7.5 0 1 0 -15 0zM1102.26 593.93 a7.5 7.5 0 1 0 15 0 a7.5 7.5 0 1 0 -15 0zM1102.26 668.93 a7.5 7.5 0 1 0 15 0 a7.5 7.5 0 1 0 -15 0zM1037.31 706.43 a7.5 7.5 0 1 0 15 0 a7.5 7.5 0 1 0 -15 0zM1102.26 218.93 a7.5 7.5 0 1 0 15 0 a7.5 7.5 0 1 0 -15 0zM1167.21 256.43 a7.5 7.5 0 1 0 15 0 a7.5 7.5 0 1 0 -15 0zM1167.21 331.43 a7.5 7.5 0 1 0 15 0 a7.5 7.5 0 1 0 -15 0zM1102.26 368.93 a7.5 7.5 0 1 0 15 0 a7.5 7.5 0 1 0 -15 0zM1037.31 331.43 a7.5 7.5 0 1 0 15 0 a7.5 7.5 0 1 0 -15 0zM1037.31 256.43 a7.5 7.5 0 1 0 15 0 a7.5 7.5 0 1 0 -15 0zM1232.17 218.93 a7.5 7.5 0 1 0 15 0 a7.5 7.5 0 1 0 -15 0zM1297.12 256.43 a7.5 7.5 0 1 0 15 0 a7.5 7.5 0 1 0 -15 0zM1297.12 331.43 a7.5 7.5 0 1 0 15 0 a7.5 7.5 0 1 0 -15 0zM1232.17 368.93 a7.5 7.5 0 1 0 15 0 a7.5 7.5 0 1 0 -15 0zM1232.17 443.93 a7.5 7.5 0 1 0 15 0 a7.5 7.5 0 1 0 -15 0zM1297.12 481.43 a7.5 7.5 0 1 0 15 0 a7.5 7.5 0 1 0 -15 0zM1297.12 556.43 a7.5 7.5 0 1 0 15 0 a7.5 7.5 0 1 0 -15 0zM1232.17 593.93 a7.5 7.5 0 1 0 15 0 a7.5 7.5 0 1 0 -15 0zM1167.21 556.43 a7.5 7.5 0 1 0 15 0 a7.5 7.5 0 1 0 -15 0zM1167.21 481.43 a7.5 7.5 0 1 0 15 0 a7.5 7.5 0 1 0 -15 0zM1362.07 593.93 a7.5 7.5 0 1 0 15 0 a7.5 7.5 0 1 0 -15 0zM1362.07 668.93 a7.5 7.5 0 1 0 15 0 a7.5 7.5 0 1 0 -15 0zM1297.12 706.43 a7.5 7.5 0 1 0 15 0 a7.5 7.5 0 1 0 -15 0zM1232.17 668.93 a7.5 7.5 0 1 0 15 0 a7.5 7.5 0 1 0 -15 0zM1362.08 -6.07 a7.5 7.5 0 1 0 15 0 a7.5 7.5 0 1 0 -15 0zM1427.03 31.43 a7.5 7.5 0 1 0 15 0 a7.5 7.5 0 1 0 -15 0zM1427.03 106.43 a7.5 7.5 0 1 0 15 0 a7.5 7.5 0 1 0 -15 0zM1362.08 143.93 a7.5 7.5 0 1 0 15 0 a7.5 7.5 0 1 0 -15 0zM1297.12 106.43 a7.5 7.5 0 1 0 15 0 a7.5 7.5 0 1 0 -15 0zM1297.12 31.43 a7.5 7.5 0 1 0 15 0 a7.5 7.5 0 1 0 -15 0zM1491.98 143.93 a7.5 7.5 0 1 0 15 0 a7.5 7.5 0 1 0 -15 0zM1491.98 218.93 a7.5 7.5 0 1 0 15 0 a7.5 7.5 0 1 0 -15 0zM1427.03 256.43 a7.5 7.5 0 1 0 15 0 a7.5 7.5 0 1 0 -15 0zM1362.08 218.93 a7.5 7.5 0 1 0 15 0 a7.5 7.5 0 1 0 -15 0zM1427.03 331.43 a7.5 7.5 0 1 0 15 0 a7.5 7.5 0 1 0 -15 0zM1491.98 368.93 a7.5 7.5 0 1 0 15 0 a7.5 7.5 0 1 0 -15 0zM1491.98 443.93 a7.5 7.5 0 1 0 15 0 a7.5 7.5 0 1 0 -15 0zM1427.03 481.43 a7.5 7.5 0 1 0 15 0 a7.5 7.5 0 1 0 -15 0zM1362.08 443.93 a7.5 7.5 0 1 0 15 0 a7.5 7.5 0 1 0 -15 0zM1362.08 368.93 a7.5 7.5 0 1 0 15 0 a7.5 7.5 0 1 0 -15 0zM1491.98 -6.07 a7.5 7.5 0 1 0 15 0 a7.5 7.5 0 1 0 -15 0zM1556.94 31.43 a7.5 7.5 0 1 0 15 0 a7.5 7.5 0 1 0 -15 0zM1556.94 106.43 a7.5 7.5 0 1 0 15 0 a7.5 7.5 0 1 0 -15 0zM1556.94 556.43 a7.5 7.5 0 1 0 15 0 a7.5 7.5 0 1 0 -15 0zM1621.89 593.93 a7.5 7.5 0 1 0 15 0 a7.5 7.5 0 1 0 -15 0zM1621.89 668.93 a7.5 7.5 0 1 0 15 0 a7.5 7.5 0 1 0 -15 0zM1556.94 706.43 a7.5 7.5 0 1 0 15 0 a7.5 7.5 0 1 0 -15 0zM1491.98 668.93 a7.5 7.5 0 1 0 15 0 a7.5 7.5 0 1 0 -15 0zM1491.98 593.93 a7.5 7.5 0 1 0 15 0 a7.5 7.5 0 1 0 -15 0z" fill="#03305d"></path><path d="M12.09 277.17L55.39 302.17L55.39 352.17L12.09 377.17L-31.21 352.17L-31.21 302.17zM55.39 352.17L98.7 377.17L98.7 427.17L55.39 452.17L12.09 427.17L12.09 377.17zM12.09 427.17L55.39 452.17L55.39 502.17L12.09 527.17L-31.21 502.17L-31.21 452.17zM55.39 502.17L98.7 527.17L98.7 577.17L55.39 602.17L12.09 577.17L12.09 527.17zM142 52.17L185.3 77.17L185.3 127.17L142 152.17L98.7 127.17L98.7 77.17zM142 352.17L185.3 377.17L185.3 427.17L142 452.17L98.7 427.17L98.7 377.17zM228.6 202.17L271.9 227.17L271.9 277.17L228.6 302.17L185.3 277.17L185.3 227.17zM185.3 427.17L228.6 452.17L228.6 502.17L185.3 527.17L142 502.17L142 452.17zM228.6 502.17L271.9 527.17L271.9 577.17L228.6 602.17L185.3 577.17L185.3 527.17zM271.9 -22.83L315.21 2.17L315.21 52.17L271.9 77.17L228.6 52.17L228.6 2.17zM315.21 202.17L358.51 227.17L358.51 277.17L315.21 302.17L271.9 277.17L271.9 227.17zM271.9 427.17L315.21 452.17L315.21 502.17L271.9 527.17L228.6 502.17L228.6 452.17zM401.81 52.17L445.12 77.17L445.12 127.17L401.81 152.17L358.51 127.17L358.51 77.17zM401.81 202.17L445.12 227.17L445.12 277.17L401.81 302.17L358.51 277.17L358.51 227.17zM358.51 277.17L401.81 302.17L401.81 352.17L358.51 377.17L315.21 352.17L315.21 302.17zM401.81 352.17L445.12 377.17L445.12 427.17L401.81 452.17L358.51 427.17L358.51 377.17zM488.42 52.17L531.72 77.17L531.72 127.17L488.42 152.17L445.12 127.17L445.12 77.17zM488.42 202.17L531.72 227.17L531.72 277.17L488.42 302.17L445.12 277.17L445.12 227.17zM445.12 277.17L488.42 302.17L488.42 352.17L445.12 377.17L401.81 352.17L401.81 302.17zM531.72 -22.83L575.02 2.17L575.02 52.17L531.72 77.17L488.42 52.17L488.42 2.17zM531.72 127.17L575.02 152.17L575.02 202.17L531.72 227.17L488.42 202.17L488.42 152.17zM575.02 202.17L618.33 227.17L618.33 277.17L575.02 302.17L531.72 277.17L531.72 227.17zM531.72 277.17L575.02 302.17L575.02 352.17L531.72 377.17L488.42 352.17L488.42 302.17zM575.02 352.17L618.33 377.17L618.33 427.17L575.02 452.17L531.72 427.17L531.72 377.17zM531.72 427.17L575.02 452.17L575.02 502.17L531.72 527.17L488.42 502.17L488.42 452.17zM575.02 502.17L618.33 527.17L618.33 577.17L575.02 602.17L531.72 577.17L531.72 527.17zM618.33 -22.83L661.63 2.17L661.63 52.17L618.33 77.17L575.02 52.17L575.02 2.17zM661.63 352.17L704.93 377.17L704.93 427.17L661.63 452.17L618.33 427.17L618.33 377.17zM704.93 -22.83L748.23 2.17L748.23 52.17L704.93 77.17L661.63 52.17L661.63 2.17zM748.23 52.17L791.54 77.17L791.54 127.17L748.23 152.17L704.93 127.17L704.93 77.17zM704.93 277.17L748.23 302.17L748.23 352.17L704.93 377.17L661.63 352.17L661.63 302.17zM748.23 352.17L791.54 377.17L791.54 427.17L748.23 452.17L704.93 427.17L704.93 377.17zM791.54 -22.83L834.84 2.17L834.84 52.17L791.54 77.17L748.23 52.17L748.23 2.17zM834.84 52.17L878.14 77.17L878.14 127.17L834.84 152.17L791.54 127.17L791.54 77.17zM791.54 127.17L834.84 152.17L834.84 202.17L791.54 227.17L748.23 202.17L748.23 152.17zM791.54 427.17L834.84 452.17L834.84 502.17L791.54 527.17L748.23 502.17L748.23 452.17zM878.14 127.17L921.44 152.17L921.44 202.17L878.14 227.17L834.84 202.17L834.84 152.17zM921.44 352.17L964.75 377.17L964.75 427.17L921.44 452.17L878.14 427.17L878.14 377.17zM921.44 502.17L964.75 527.17L964.75 577.17L921.44 602.17L878.14 577.17L878.14 527.17zM1008.05 202.17L1051.35 227.17L1051.35 277.17L1008.05 302.17L964.75 277.17L964.75 227.17zM964.75 277.17L1008.05 302.17L1008.05 352.17L964.75 377.17L921.44 352.17L921.44 302.17zM964.75 427.17L1008.05 452.17L1008.05 502.17L964.75 527.17L921.44 502.17L921.44 452.17zM1008.05 502.17L1051.35 527.17L1051.35 577.17L1008.05 602.17L964.75 577.17L964.75 527.17zM1181.26 202.17L1224.56 227.17L1224.56 277.17L1181.26 302.17L1137.95 277.17L1137.95 227.17zM1267.86 202.17L1311.16 227.17L1311.16 277.17L1267.86 302.17L1224.56 277.17L1224.56 227.17zM1224.56 427.17L1267.86 452.17L1267.86 502.17L1224.56 527.17L1181.26 502.17L1181.26 452.17zM1267.86 502.17L1311.16 527.17L1311.16 577.17L1267.86 602.17L1224.56 577.17L1224.56 527.17zM1441.07 502.17L1484.38 527.17L1484.38 577.17L1441.07 602.17L1397.77 577.17L1397.77 527.17z" stroke="rgba(6, 80, 156, 0.93)" stroke-width="2"></path></g><defs><mask id="SvgjsMask1000"><rect width="1440" height="560" fill="#ffffff"></rect></mask></defs></svg>