<svg xmlns="http://www.w3.org/2000/svg" version="1.1" xmlns:xlink="http://www.w3.org/1999/xlink" xmlns:svgjs="http://svgjs.dev/svgjs" width="1440" height="560" preserveAspectRatio="none" viewBox="0 0 1440 560"><g mask="url(&quot;#SvgjsMask1000&quot;)" fill="none"><rect width="1440" height="560" x="0" y="0" fill="#0e2a47"></rect><path d="M-69.14 402.2L-69.14 402.2" stroke="#132e65" stroke-width="1.5"></path><path d="M-69.14 402.2L-108.13 530.46" stroke="#132e65" stroke-width="1.5"></path><path d="M-69.14 402.2L87.72 373.5" stroke="#132e65" stroke-width="1.5"></path><path d="M-69.14 402.2L61.78 500.12" stroke="#132e65" stroke-width="1.5"></path><path d="M-69.14 402.2L-60.71 665.75" stroke="#132e65" stroke-width="1.5"></path><path d="M-108.13 530.46L-108.13 530.46" stroke="#132e65" stroke-width="1.5"></path><path d="M-108.13 530.46L-60.71 665.75" stroke="#132e65" stroke-width="1.5"></path><path d="M-108.13 530.46L61.78 500.12" stroke="#132e65" stroke-width="1.5"></path><path d="M-108.13 530.46L50.8 683.93" stroke="#132e65" stroke-width="1.5"></path><path d="M-60.71 665.75L-60.71 665.75" stroke="#132e65" stroke-width="1.5"></path><path d="M-60.71 665.75L50.8 683.93" stroke="#132e65" stroke-width="1.5"></path><path d="M-60.71 665.75L61.78 500.12" stroke="#132e65" stroke-width="1.5"></path><path d="M-60.71 665.75L260.84 673.7" stroke="#132e65" stroke-width="1.5"></path><path d="M87.72 373.5L87.72 373.5" stroke="#132e65" stroke-width="1.5"></path><path d="M87.72 373.5L61.78 500.12" stroke="#132e65" stroke-width="1.5"></path><path d="M87.72 373.5L221.08 361.94" stroke="#132e65" stroke-width="1.5"></path><path d="M87.72 373.5L224.44 489.55" stroke="#132e65" stroke-width="1.5"></path><path d="M87.72 373.5L-108.13 530.46" stroke="#132e65" stroke-width="1.5"></path><path d="M61.78 500.12L61.78 500.12" stroke="#132e65" stroke-width="1.5"></path><path d="M61.78 500.12L224.44 489.55" stroke="#132e65" stroke-width="1.5"></path><path d="M50.8 683.93L50.8 683.93" stroke="#132e65" stroke-width="1.5"></path><path d="M50.8 683.93L61.78 500.12" stroke="#132e65" stroke-width="1.5"></path><path d="M50.8 683.93L260.84 673.7" stroke="#132e65" stroke-width="1.5"></path><path d="M50.8 683.93L224.44 489.55" stroke="#132e65" stroke-width="1.5"></path><path d="M50.8 683.93L-69.14 402.2" stroke="#132e65" stroke-width="1.5"></path><path d="M221.08 361.94L221.08 361.94" stroke="#132e65" stroke-width="1.5"></path><path d="M221.08 361.94L224.44 489.55" stroke="#132e65" stroke-width="1.5"></path><path d="M224.44 489.55L224.44 489.55" stroke="#132e65" stroke-width="1.5"></path><path d="M224.44 489.55L342.6 517.48" stroke="#132e65" stroke-width="1.5"></path><path d="M224.44 489.55L260.84 673.7" stroke="#132e65" stroke-width="1.5"></path><path d="M260.84 673.7L260.84 673.7" stroke="#132e65" stroke-width="1.5"></path><path d="M260.84 673.7L406.39 660.97" stroke="#132e65" stroke-width="1.5"></path><path d="M260.84 673.7L342.6 517.48" stroke="#132e65" stroke-width="1.5"></path><path d="M260.84 673.7L61.78 500.12" stroke="#132e65" stroke-width="1.5"></path><path d="M393.74 404.16L393.74 404.16" stroke="#132e65" stroke-width="1.5"></path><path d="M393.74 404.16L342.6 517.48" stroke="#132e65" stroke-width="1.5"></path><path d="M393.74 404.16L526.53 381.47" stroke="#132e65" stroke-width="1.5"></path><path d="M393.74 404.16L221.08 361.94" stroke="#132e65" stroke-width="1.5"></path><path d="M393.74 404.16L224.44 489.55" stroke="#132e65" stroke-width="1.5"></path><path d="M393.74 404.16L524.27 553.56" stroke="#132e65" stroke-width="1.5"></path><path d="M393.74 404.16L406.39 660.97" stroke="#132e65" stroke-width="1.5"></path><path d="M342.6 517.48L342.6 517.48" stroke="#132e65" stroke-width="1.5"></path><path d="M342.6 517.48L406.39 660.97" stroke="#132e65" stroke-width="1.5"></path><path d="M406.39 660.97L406.39 660.97" stroke="#132e65" stroke-width="1.5"></path><path d="M406.39 660.97L561.27 686.05" stroke="#132e65" stroke-width="1.5"></path><path d="M526.53 381.47L526.53 381.47" stroke="#132e65" stroke-width="1.5"></path><path d="M526.53 381.47L524.27 553.56" stroke="#132e65" stroke-width="1.5"></path><path d="M524.27 553.56L524.27 553.56" stroke="#132e65" stroke-width="1.5"></path><path d="M524.27 553.56L561.27 686.05" stroke="#132e65" stroke-width="1.5"></path><path d="M524.27 553.56L406.39 660.97" stroke="#132e65" stroke-width="1.5"></path><path d="M561.27 686.05L561.27 686.05" stroke="#132e65" stroke-width="1.5"></path><path d="M561.27 686.05L655.54 694.51" stroke="#132e65" stroke-width="1.5"></path><path d="M640.57 249.28L640.57 249.28" stroke="#132e65" stroke-width="1.5"></path><path d="M640.57 249.28L795.58 246.78" stroke="#132e65" stroke-width="1.5"></path><path d="M640.57 249.28L526.53 381.47" stroke="#132e65" stroke-width="1.5"></path><path d="M640.57 249.28L790.2 383.33" stroke="#132e65" stroke-width="1.5"></path><path d="M640.57 249.28L831.27 101.35" stroke="#132e65" stroke-width="1.5"></path><path d="M655.54 694.51L655.54 694.51" stroke="#132e65" stroke-width="1.5"></path><path d="M655.54 694.51L524.27 553.56" stroke="#132e65" stroke-width="1.5"></path><path d="M831.27 101.35L831.27 101.35" stroke="#132e65" stroke-width="1.5"></path><path d="M831.27 101.35L795.58 246.78" stroke="#132e65" stroke-width="1.5"></path><path d="M831.27 101.35L977.32 41.37" stroke="#132e65" stroke-width="1.5"></path><path d="M831.27 101.35L1011.32 254.68" stroke="#132e65" stroke-width="1.5"></path><path d="M795.58 246.78L795.58 246.78" stroke="#132e65" stroke-width="1.5"></path><path d="M795.58 246.78L790.2 383.33" stroke="#132e65" stroke-width="1.5"></path><path d="M795.58 246.78L1011.32 254.68" stroke="#132e65" stroke-width="1.5"></path><path d="M790.2 383.33L790.2 383.33" stroke="#132e65" stroke-width="1.5"></path><path d="M790.2 383.33L852.11 493.09" stroke="#132e65" stroke-width="1.5"></path><path d="M790.2 383.33L983.46 390.23" stroke="#132e65" stroke-width="1.5"></path><path d="M790.2 383.33L942.86 548.5" stroke="#132e65" stroke-width="1.5"></path><path d="M790.2 383.33L1011.32 254.68" stroke="#132e65" stroke-width="1.5"></path><path d="M852.11 493.09L852.11 493.09" stroke="#132e65" stroke-width="1.5"></path><path d="M852.11 493.09L942.86 548.5" stroke="#132e65" stroke-width="1.5"></path><path d="M852.11 493.09L983.46 390.23" stroke="#132e65" stroke-width="1.5"></path><path d="M851.94 683.26L851.94 683.26" stroke="#132e65" stroke-width="1.5"></path><path d="M851.94 683.26L949.68 686.48" stroke="#132e65" stroke-width="1.5"></path><path d="M851.94 683.26L942.86 548.5" stroke="#132e65" stroke-width="1.5"></path><path d="M851.94 683.26L852.11 493.09" stroke="#132e65" stroke-width="1.5"></path><path d="M851.94 683.26L655.54 694.51" stroke="#132e65" stroke-width="1.5"></path><path d="M851.94 683.26L1136.62 672.82" stroke="#132e65" stroke-width="1.5"></path><path d="M851.94 683.26L561.27 686.05" stroke="#132e65" stroke-width="1.5"></path><path d="M1009.52 -107.43L1009.52 -107.43" stroke="#132e65" stroke-width="1.5"></path><path d="M1009.52 -107.43L1105.02 -90.31" stroke="#132e65" stroke-width="1.5"></path><path d="M1009.52 -107.43L977.32 41.37" stroke="#132e65" stroke-width="1.5"></path><path d="M1009.52 -107.43L1139.16 75.74" stroke="#132e65" stroke-width="1.5"></path><path d="M1009.52 -107.43L831.27 101.35" stroke="#132e65" stroke-width="1.5"></path><path d="M1009.52 -107.43L1302.96 -77.63" stroke="#132e65" stroke-width="1.5"></path><path d="M1009.52 -107.43L1271.94 98.11" stroke="#132e65" stroke-width="1.5"></path><path d="M977.32 41.37L977.32 41.37" stroke="#132e65" stroke-width="1.5"></path><path d="M977.32 41.37L1139.16 75.74" stroke="#132e65" stroke-width="1.5"></path><path d="M977.32 41.37L1105.02 -90.31" stroke="#132e65" stroke-width="1.5"></path><path d="M977.32 41.37L1011.32 254.68" stroke="#132e65" stroke-width="1.5"></path><path d="M1011.32 254.68L1011.32 254.68" stroke="#132e65" stroke-width="1.5"></path><path d="M1011.32 254.68L1090.65 249.55" stroke="#132e65" stroke-width="1.5"></path><path d="M1011.32 254.68L983.46 390.23" stroke="#132e65" stroke-width="1.5"></path><path d="M1011.32 254.68L1115.59 360.67" stroke="#132e65" stroke-width="1.5"></path><path d="M983.46 390.23L983.46 390.23" stroke="#132e65" stroke-width="1.5"></path><path d="M983.46 390.23L1115.59 360.67" stroke="#132e65" stroke-width="1.5"></path><path d="M983.46 390.23L942.86 548.5" stroke="#132e65" stroke-width="1.5"></path><path d="M942.86 548.5L942.86 548.5" stroke="#132e65" stroke-width="1.5"></path><path d="M942.86 548.5L949.68 686.48" stroke="#132e65" stroke-width="1.5"></path><path d="M949.68 686.48L949.68 686.48" stroke="#132e65" stroke-width="1.5"></path><path d="M949.68 686.48L1136.62 672.82" stroke="#132e65" stroke-width="1.5"></path><path d="M949.68 686.48L852.11 493.09" stroke="#132e65" stroke-width="1.5"></path><path d="M949.68 686.48L1109.59 498.65" stroke="#132e65" stroke-width="1.5"></path><path d="M1105.02 -90.31L1105.02 -90.31" stroke="#132e65" stroke-width="1.5"></path><path d="M1105.02 -90.31L1139.16 75.74" stroke="#132e65" stroke-width="1.5"></path><path d="M1105.02 -90.31L1302.96 -77.63" stroke="#132e65" stroke-width="1.5"></path><path d="M1139.16 75.74L1139.16 75.74" stroke="#132e65" stroke-width="1.5"></path><path d="M1139.16 75.74L1271.94 98.11" stroke="#132e65" stroke-width="1.5"></path><path d="M1139.16 75.74L1090.65 249.55" stroke="#132e65" stroke-width="1.5"></path><path d="M1139.16 75.74L1011.32 254.68" stroke="#132e65" stroke-width="1.5"></path><path d="M1090.65 249.55L1090.65 249.55" stroke="#132e65" stroke-width="1.5"></path><path d="M1115.59 360.67L1115.59 360.67" stroke="#132e65" stroke-width="1.5"></path><path d="M1115.59 360.67L1090.65 249.55" stroke="#132e65" stroke-width="1.5"></path><path d="M1109.59 498.65L1109.59 498.65" stroke="#132e65" stroke-width="1.5"></path><path d="M1109.59 498.65L1115.59 360.67" stroke="#132e65" stroke-width="1.5"></path><path d="M1109.59 498.65L1248.09 529.54" stroke="#132e65" stroke-width="1.5"></path><path d="M1109.59 498.65L983.46 390.23" stroke="#132e65" stroke-width="1.5"></path><path d="M1109.59 498.65L942.86 548.5" stroke="#132e65" stroke-width="1.5"></path><path d="M1136.62 672.82L1136.62 672.82" stroke="#132e65" stroke-width="1.5"></path><path d="M1136.62 672.82L1266.42 646.96" stroke="#132e65" stroke-width="1.5"></path><path d="M1136.62 672.82L1109.59 498.65" stroke="#132e65" stroke-width="1.5"></path><path d="M1136.62 672.82L1248.09 529.54" stroke="#132e65" stroke-width="1.5"></path><path d="M1136.62 672.82L942.86 548.5" stroke="#132e65" stroke-width="1.5"></path><path d="M1302.96 -77.63L1302.96 -77.63" stroke="#132e65" stroke-width="1.5"></path><path d="M1302.96 -77.63L1400.44 -100.41" stroke="#132e65" stroke-width="1.5"></path><path d="M1302.96 -77.63L1271.94 98.11" stroke="#132e65" stroke-width="1.5"></path><path d="M1302.96 -77.63L1451.16 48.86" stroke="#132e65" stroke-width="1.5"></path><path d="M1271.94 98.11L1271.94 98.11" stroke="#132e65" stroke-width="1.5"></path><path d="M1271.94 98.11L1297.88 249.74" stroke="#132e65" stroke-width="1.5"></path><path d="M1297.88 249.74L1297.88 249.74" stroke="#132e65" stroke-width="1.5"></path><path d="M1297.88 249.74L1284.64 344.91" stroke="#132e65" stroke-width="1.5"></path><path d="M1297.88 249.74L1436.63 341.63" stroke="#132e65" stroke-width="1.5"></path><path d="M1284.64 344.91L1284.64 344.91" stroke="#132e65" stroke-width="1.5"></path><path d="M1284.64 344.91L1436.63 341.63" stroke="#132e65" stroke-width="1.5"></path><path d="M1284.64 344.91L1115.59 360.67" stroke="#132e65" stroke-width="1.5"></path><path d="M1284.64 344.91L1248.09 529.54" stroke="#132e65" stroke-width="1.5"></path><path d="M1284.64 344.91L1390.06 521.36" stroke="#132e65" stroke-width="1.5"></path><path d="M1248.09 529.54L1248.09 529.54" stroke="#132e65" stroke-width="1.5"></path><path d="M1248.09 529.54L1266.42 646.96" stroke="#132e65" stroke-width="1.5"></path><path d="M1248.09 529.54L1390.06 521.36" stroke="#132e65" stroke-width="1.5"></path><path d="M1266.42 646.96L1266.42 646.96" stroke="#132e65" stroke-width="1.5"></path><path d="M1400.44 -100.41L1400.44 -100.41" stroke="#132e65" stroke-width="1.5"></path><path d="M1400.44 -100.41L1451.16 48.86" stroke="#132e65" stroke-width="1.5"></path><path d="M1400.44 -100.41L1271.94 98.11" stroke="#132e65" stroke-width="1.5"></path><path d="M1400.44 -100.41L1588.66 59.84" stroke="#132e65" stroke-width="1.5"></path><path d="M1400.44 -100.41L1105.02 -90.31" stroke="#132e65" stroke-width="1.5"></path><path d="M1451.16 48.86L1451.16 48.86" stroke="#132e65" stroke-width="1.5"></path><path d="M1451.16 48.86L1588.66 59.84" stroke="#132e65" stroke-width="1.5"></path><path d="M1451.16 48.86L1271.94 98.11" stroke="#132e65" stroke-width="1.5"></path><path d="M1451.16 48.86L1545.57 249.01" stroke="#132e65" stroke-width="1.5"></path><path d="M1436.63 341.63L1436.63 341.63" stroke="#132e65" stroke-width="1.5"></path><path d="M1436.63 341.63L1545.57 249.01" stroke="#132e65" stroke-width="1.5"></path><path d="M1390.06 521.36L1390.06 521.36" stroke="#132e65" stroke-width="1.5"></path><path d="M1390.06 521.36L1452.53 661.53" stroke="#132e65" stroke-width="1.5"></path><path d="M1452.53 661.53L1452.53 661.53" stroke="#132e65" stroke-width="1.5"></path><path d="M1452.53 661.53L1591.7 652.35" stroke="#132e65" stroke-width="1.5"></path><path d="M1452.53 661.53L1266.42 646.96" stroke="#132e65" stroke-width="1.5"></path><path d="M1452.53 661.53L1610.5 487.77" stroke="#132e65" stroke-width="1.5"></path><path d="M1588.66 59.84L1588.66 59.84" stroke="#132e65" stroke-width="1.5"></path><path d="M1588.66 59.84L1545.57 249.01" stroke="#132e65" stroke-width="1.5"></path><path d="M1545.57 249.01L1545.57 249.01" stroke="#132e65" stroke-width="1.5"></path><path d="M1545.57 249.01L1604.85 338.05" stroke="#132e65" stroke-width="1.5"></path><path d="M1545.57 249.01L1610.5 487.77" stroke="#132e65" stroke-width="1.5"></path><path d="M1604.85 338.05L1604.85 338.05" stroke="#132e65" stroke-width="1.5"></path><path d="M1604.85 338.05L1610.5 487.77" stroke="#132e65" stroke-width="1.5"></path><path d="M1604.85 338.05L1436.63 341.63" stroke="#132e65" stroke-width="1.5"></path><path d="M1604.85 338.05L1588.66 59.84" stroke="#132e65" stroke-width="1.5"></path><path d="M1604.85 338.05L1390.06 521.36" stroke="#132e65" stroke-width="1.5"></path><path d="M1604.85 338.05L1591.7 652.35" stroke="#132e65" stroke-width="1.5"></path><path d="M1610.5 487.77L1610.5 487.77" stroke="#132e65" stroke-width="1.5"></path><path d="M1610.5 487.77L1591.7 652.35" stroke="#132e65" stroke-width="1.5"></path><path d="M1610.5 487.77L1390.06 521.36" stroke="#132e65" stroke-width="1.5"></path><path d="M1610.5 487.77L1436.63 341.63" stroke="#132e65" stroke-width="1.5"></path><path d="M1591.7 652.35L1591.7 652.35" stroke="#132e65" stroke-width="1.5"></path><circle r="5" cx="-69.14" cy="402.2" fill="#132e65"></circle><circle r="5" cx="-108.13" cy="530.46" fill="#132e65"></circle><circle r="5" cx="-60.71" cy="665.75" fill="#132e65"></circle><circle r="5" cx="87.72" cy="373.5" fill="#132e65"></circle><circle r="5" cx="61.78" cy="500.12" fill="#132e65"></circle><circle r="5" cx="50.8" cy="683.93" fill="#132e65"></circle><circle r="5" cx="221.08" cy="361.94" fill="#132e65"></circle><circle r="5" cx="224.44" cy="489.55" fill="#132e65"></circle><circle r="5" cx="260.84" cy="673.7" fill="#132e65"></circle><circle r="5" cx="393.74" cy="404.16" fill="#132e65"></circle><circle r="5" cx="342.6" cy="517.48" fill="#132e65"></circle><circle r="5" cx="406.39" cy="660.97" fill="#132e65"></circle><circle r="5" cx="526.53" cy="381.47" fill="#132e65"></circle><circle r="5" cx="524.27" cy="553.56" fill="#132e65"></circle><circle r="5" cx="561.27" cy="686.05" fill="#132e65"></circle><circle r="5" cx="640.57" cy="249.28" fill="#132e65"></circle><circle r="5" cx="655.54" cy="694.51" fill="#132e65"></circle><circle r="5" cx="831.27" cy="101.35" fill="#132e65"></circle><circle r="5" cx="795.58" cy="246.78" fill="#132e65"></circle><circle r="5" cx="790.2" cy="383.33" fill="#132e65"></circle><circle r="5" cx="852.11" cy="493.09" fill="#132e65"></circle><circle r="5" cx="851.94" cy="683.26" fill="#132e65"></circle><circle r="5" cx="1009.52" cy="-107.43" fill="#132e65"></circle><circle r="5" cx="977.32" cy="41.37" fill="#132e65"></circle><circle r="5" cx="1011.32" cy="254.68" fill="#132e65"></circle><circle r="5" cx="983.46" cy="390.23" fill="#132e65"></circle><circle r="5" cx="942.86" cy="548.5" fill="#132e65"></circle><circle r="5" cx="949.68" cy="686.48" fill="#132e65"></circle><circle r="5" cx="1105.02" cy="-90.31" fill="#132e65"></circle><circle r="5" cx="1139.16" cy="75.74" fill="#132e65"></circle><circle r="5" cx="1090.65" cy="249.55" fill="#132e65"></circle><circle r="5" cx="1115.59" cy="360.67" fill="#132e65"></circle><circle r="5" cx="1109.59" cy="498.65" fill="#132e65"></circle><circle r="5" cx="1136.62" cy="672.82" fill="#132e65"></circle><circle r="5" cx="1302.96" cy="-77.63" fill="#132e65"></circle><circle r="5" cx="1271.94" cy="98.11" fill="#132e65"></circle><circle r="5" cx="1297.88" cy="249.74" fill="#132e65"></circle><circle r="5" cx="1284.64" cy="344.91" fill="#132e65"></circle><circle r="5" cx="1248.09" cy="529.54" fill="#132e65"></circle><circle r="5" cx="1266.42" cy="646.96" fill="#132e65"></circle><circle r="5" cx="1400.44" cy="-100.41" fill="#132e65"></circle><circle r="5" cx="1451.16" cy="48.86" fill="#132e65"></circle><circle r="5" cx="1436.63" cy="341.63" fill="#132e65"></circle><circle r="5" cx="1390.06" cy="521.36" fill="#132e65"></circle><circle r="5" cx="1452.53" cy="661.53" fill="#132e65"></circle><circle r="5" cx="1588.66" cy="59.84" fill="#132e65"></circle><circle r="5" cx="1545.57" cy="249.01" fill="#132e65"></circle><circle r="5" cx="1604.85" cy="338.05" fill="#132e65"></circle><circle r="5" cx="1610.5" cy="487.77" fill="#132e65"></circle><circle r="5" cx="1591.7" cy="652.35" fill="#132e65"></circle><path d="M668.94 402.04L668.94 402.04" stroke="hsl(228.5, 77.2%, 51.5%)" stroke-width="1.5"></path><path d="M668.94 402.04L670.61 547.73" stroke="hsl(228.5, 77.2%, 51.5%)" stroke-width="1.5"></path><path d="M668.94 402.04L798.5 502.03" stroke="hsl(228.5, 77.2%, 51.5%)" stroke-width="1.5"></path><path d="M670.61 547.73L670.61 547.73" stroke="hsl(228.5, 77.2%, 51.5%)" stroke-width="1.5"></path><path d="M670.61 547.73L644.04 650.27" stroke="hsl(228.5, 77.2%, 51.5%)" stroke-width="1.5"></path><path d="M670.61 547.73L798.5 502.03" stroke="hsl(228.5, 77.2%, 51.5%)" stroke-width="1.5"></path><path d="M670.61 547.73L553.16 701.39" stroke="hsl(228.5, 77.2%, 51.5%)" stroke-width="1.5"></path><path d="M670.61 547.73L854.74 655.07" stroke="hsl(228.5, 77.2%, 51.5%)" stroke-width="1.5"></path><path d="M644.04 650.27L644.04 650.27" stroke="hsl(228.5, 77.2%, 51.5%)" stroke-width="1.5"></path><path d="M644.04 650.27L553.16 701.39" stroke="hsl(228.5, 77.2%, 51.5%)" stroke-width="1.5"></path><path d="M644.04 650.27L854.74 655.07" stroke="hsl(228.5, 77.2%, 51.5%)" stroke-width="1.5"></path><path d="M644.04 650.27L798.5 502.03" stroke="hsl(228.5, 77.2%, 51.5%)" stroke-width="1.5"></path><path d="M644.04 650.27L668.94 402.04" stroke="hsl(228.5, 77.2%, 51.5%)" stroke-width="1.5"></path><path d="M798.5 502.03L798.5 502.03" stroke="hsl(228.5, 77.2%, 51.5%)" stroke-width="1.5"></path><path d="M798.5 502.03L861.29 363.04" stroke="hsl(228.5, 77.2%, 51.5%)" stroke-width="1.5"></path><path d="M1282.83 531.35L1282.83 531.35" stroke="hsl(228.5, 77.2%, 51.5%)" stroke-width="1.5"></path><path d="M1282.83 531.35L1390.61 549.77" stroke="hsl(228.5, 77.2%, 51.5%)" stroke-width="1.5"></path><path d="M1282.83 531.35L1135.59 510.82" stroke="hsl(228.5, 77.2%, 51.5%)" stroke-width="1.5"></path><path d="M1390.61 549.77L1390.61 549.77" stroke="hsl(228.5, 77.2%, 51.5%)" stroke-width="1.5"></path><path d="M1390.61 549.77L1418.37 687.78" stroke="hsl(228.5, 77.2%, 51.5%)" stroke-width="1.5"></path><path d="M1550.5 111.66L1550.5 111.66" stroke="hsl(228.5, 77.2%, 51.5%)" stroke-width="1.5"></path><path d="M1550.5 111.66L1439.79 65.76" stroke="hsl(228.5, 77.2%, 51.5%)" stroke-width="1.5"></path><path d="M1550.5 111.66L1580.22 262.09" stroke="hsl(228.5, 77.2%, 51.5%)" stroke-width="1.5"></path><path d="M-87.52 556.61L-87.52 556.61" stroke="hsl(228.5, 77.2%, 51.5%)" stroke-width="1.5"></path><path d="M-87.52 556.61L90.83 551.55" stroke="hsl(228.5, 77.2%, 51.5%)" stroke-width="1.5"></path><path d="M-87.52 556.61L210.59 682.62" stroke="hsl(228.5, 77.2%, 51.5%)" stroke-width="1.5"></path><path d="M-87.52 556.61L236.53 543.89" stroke="hsl(228.5, 77.2%, 51.5%)" stroke-width="1.5"></path><path d="M90.83 551.55L90.83 551.55" stroke="hsl(228.5, 77.2%, 51.5%)" stroke-width="1.5"></path><path d="M90.83 551.55L236.53 543.89" stroke="hsl(228.5, 77.2%, 51.5%)" stroke-width="1.5"></path><path d="M90.83 551.55L210.59 682.62" stroke="hsl(228.5, 77.2%, 51.5%)" stroke-width="1.5"></path><path d="M90.83 551.55L344.77 645.05" stroke="hsl(228.5, 77.2%, 51.5%)" stroke-width="1.5"></path><path d="M236.53 543.89L236.53 543.89" stroke="hsl(228.5, 77.2%, 51.5%)" stroke-width="1.5"></path><path d="M236.53 543.89L210.59 682.62" stroke="hsl(228.5, 77.2%, 51.5%)" stroke-width="1.5"></path><path d="M236.53 543.89L344.77 645.05" stroke="hsl(228.5, 77.2%, 51.5%)" stroke-width="1.5"></path><path d="M210.59 682.62L210.59 682.62" stroke="hsl(228.5, 77.2%, 51.5%)" stroke-width="1.5"></path><path d="M210.59 682.62L344.77 645.05" stroke="hsl(228.5, 77.2%, 51.5%)" stroke-width="1.5"></path><path d="M344.77 645.05L344.77 645.05" stroke="hsl(228.5, 77.2%, 51.5%)" stroke-width="1.5"></path><path d="M344.77 645.05L553.16 701.39" stroke="hsl(228.5, 77.2%, 51.5%)" stroke-width="1.5"></path><path d="M344.77 645.05L644.04 650.27" stroke="hsl(228.5, 77.2%, 51.5%)" stroke-width="1.5"></path><path d="M553.16 701.39L553.16 701.39" stroke="hsl(228.5, 77.2%, 51.5%)" stroke-width="1.5"></path><path d="M861.29 363.04L861.29 363.04" stroke="hsl(228.5, 77.2%, 51.5%)" stroke-width="1.5"></path><path d="M861.29 363.04L961.38 394.55" stroke="hsl(228.5, 77.2%, 51.5%)" stroke-width="1.5"></path><path d="M854.74 655.07L854.74 655.07" stroke="hsl(228.5, 77.2%, 51.5%)" stroke-width="1.5"></path><path d="M854.74 655.07L954.29 675.38" stroke="hsl(228.5, 77.2%, 51.5%)" stroke-width="1.5"></path><path d="M854.74 655.07L798.5 502.03" stroke="hsl(228.5, 77.2%, 51.5%)" stroke-width="1.5"></path><path d="M961.38 394.55L961.38 394.55" stroke="hsl(228.5, 77.2%, 51.5%)" stroke-width="1.5"></path><path d="M961.38 394.55L1120.57 385.46" stroke="hsl(228.5, 77.2%, 51.5%)" stroke-width="1.5"></path><path d="M961.38 394.55L798.5 502.03" stroke="hsl(228.5, 77.2%, 51.5%)" stroke-width="1.5"></path><path d="M961.38 394.55L1135.59 510.82" stroke="hsl(228.5, 77.2%, 51.5%)" stroke-width="1.5"></path><path d="M954.29 675.38L954.29 675.38" stroke="hsl(228.5, 77.2%, 51.5%)" stroke-width="1.5"></path><path d="M954.29 675.38L1138.54 647.15" stroke="hsl(228.5, 77.2%, 51.5%)" stroke-width="1.5"></path><path d="M1136.67 105.56L1136.67 105.56" stroke="hsl(228.5, 77.2%, 51.5%)" stroke-width="1.5"></path><path d="M1136.67 105.56L1262.58 80.89" stroke="hsl(228.5, 77.2%, 51.5%)" stroke-width="1.5"></path><path d="M1136.67 105.56L1240.93 190.65" stroke="hsl(228.5, 77.2%, 51.5%)" stroke-width="1.5"></path><path d="M1136.67 105.56L1158.02 255.19" stroke="hsl(228.5, 77.2%, 51.5%)" stroke-width="1.5"></path><path d="M1136.67 105.56L1120.57 385.46" stroke="hsl(228.5, 77.2%, 51.5%)" stroke-width="1.5"></path><path d="M1136.67 105.56L1408.24 233.1" stroke="hsl(228.5, 77.2%, 51.5%)" stroke-width="1.5"></path><path d="M1136.67 105.56L1439.79 65.76" stroke="hsl(228.5, 77.2%, 51.5%)" stroke-width="1.5"></path><path d="M1158.02 255.19L1158.02 255.19" stroke="hsl(228.5, 77.2%, 51.5%)" stroke-width="1.5"></path><path d="M1158.02 255.19L1240.93 190.65" stroke="hsl(228.5, 77.2%, 51.5%)" stroke-width="1.5"></path><path d="M1158.02 255.19L1120.57 385.46" stroke="hsl(228.5, 77.2%, 51.5%)" stroke-width="1.5"></path><path d="M1120.57 385.46L1120.57 385.46" stroke="hsl(228.5, 77.2%, 51.5%)" stroke-width="1.5"></path><path d="M1120.57 385.46L1135.59 510.82" stroke="hsl(228.5, 77.2%, 51.5%)" stroke-width="1.5"></path><path d="M1120.57 385.46L1282.83 531.35" stroke="hsl(228.5, 77.2%, 51.5%)" stroke-width="1.5"></path><path d="M1135.59 510.82L1135.59 510.82" stroke="hsl(228.5, 77.2%, 51.5%)" stroke-width="1.5"></path><path d="M1138.54 647.15L1138.54 647.15" stroke="hsl(228.5, 77.2%, 51.5%)" stroke-width="1.5"></path><path d="M1138.54 647.15L1135.59 510.82" stroke="hsl(228.5, 77.2%, 51.5%)" stroke-width="1.5"></path><path d="M1138.54 647.15L1282.11 707.6" stroke="hsl(228.5, 77.2%, 51.5%)" stroke-width="1.5"></path><path d="M1138.54 647.15L1282.83 531.35" stroke="hsl(228.5, 77.2%, 51.5%)" stroke-width="1.5"></path><path d="M1138.54 647.15L1120.57 385.46" stroke="hsl(228.5, 77.2%, 51.5%)" stroke-width="1.5"></path><path d="M1138.54 647.15L1390.61 549.77" stroke="hsl(228.5, 77.2%, 51.5%)" stroke-width="1.5"></path><path d="M1262.58 80.89L1262.58 80.89" stroke="hsl(228.5, 77.2%, 51.5%)" stroke-width="1.5"></path><path d="M1262.58 80.89L1240.93 190.65" stroke="hsl(228.5, 77.2%, 51.5%)" stroke-width="1.5"></path><path d="M1262.58 80.89L1439.79 65.76" stroke="hsl(228.5, 77.2%, 51.5%)" stroke-width="1.5"></path><path d="M1240.93 190.65L1240.93 190.65" stroke="hsl(228.5, 77.2%, 51.5%)" stroke-width="1.5"></path><path d="M1240.93 190.65L1408.24 233.1" stroke="hsl(228.5, 77.2%, 51.5%)" stroke-width="1.5"></path><path d="M1240.93 190.65L1120.57 385.46" stroke="hsl(228.5, 77.2%, 51.5%)" stroke-width="1.5"></path><path d="M1282.11 707.6L1282.11 707.6" stroke="hsl(228.5, 77.2%, 51.5%)" stroke-width="1.5"></path><path d="M1282.11 707.6L1418.37 687.78" stroke="hsl(228.5, 77.2%, 51.5%)" stroke-width="1.5"></path><path d="M1282.11 707.6L1282.83 531.35" stroke="hsl(228.5, 77.2%, 51.5%)" stroke-width="1.5"></path><path d="M1282.11 707.6L1390.61 549.77" stroke="hsl(228.5, 77.2%, 51.5%)" stroke-width="1.5"></path><path d="M1282.11 707.6L1135.59 510.82" stroke="hsl(228.5, 77.2%, 51.5%)" stroke-width="1.5"></path><path d="M1282.11 707.6L954.29 675.38" stroke="hsl(228.5, 77.2%, 51.5%)" stroke-width="1.5"></path><path d="M1439.79 65.76L1439.79 65.76" stroke="hsl(228.5, 77.2%, 51.5%)" stroke-width="1.5"></path><path d="M1439.79 65.76L1408.24 233.1" stroke="hsl(228.5, 77.2%, 51.5%)" stroke-width="1.5"></path><path d="M1439.79 65.76L1240.93 190.65" stroke="hsl(228.5, 77.2%, 51.5%)" stroke-width="1.5"></path><path d="M1439.79 65.76L1580.22 262.09" stroke="hsl(228.5, 77.2%, 51.5%)" stroke-width="1.5"></path><path d="M1408.24 233.1L1408.24 233.1" stroke="hsl(228.5, 77.2%, 51.5%)" stroke-width="1.5"></path><path d="M1408.24 233.1L1419.51 350.22" stroke="hsl(228.5, 77.2%, 51.5%)" stroke-width="1.5"></path><path d="M1419.51 350.22L1419.51 350.22" stroke="hsl(228.5, 77.2%, 51.5%)" stroke-width="1.5"></path><path d="M1419.51 350.22L1589.44 342.37" stroke="hsl(228.5, 77.2%, 51.5%)" stroke-width="1.5"></path><path d="M1419.51 350.22L1580.22 262.09" stroke="hsl(228.5, 77.2%, 51.5%)" stroke-width="1.5"></path><path d="M1419.51 350.22L1390.61 549.77" stroke="hsl(228.5, 77.2%, 51.5%)" stroke-width="1.5"></path><path d="M1419.51 350.22L1561.59 496.17" stroke="hsl(228.5, 77.2%, 51.5%)" stroke-width="1.5"></path><path d="M1418.37 687.78L1418.37 687.78" stroke="hsl(228.5, 77.2%, 51.5%)" stroke-width="1.5"></path><path d="M1418.37 687.78L1282.83 531.35" stroke="hsl(228.5, 77.2%, 51.5%)" stroke-width="1.5"></path><path d="M1580.22 262.09L1580.22 262.09" stroke="hsl(228.5, 77.2%, 51.5%)" stroke-width="1.5"></path><path d="M1580.22 262.09L1589.44 342.37" stroke="hsl(228.5, 77.2%, 51.5%)" stroke-width="1.5"></path><path d="M1580.22 262.09L1408.24 233.1" stroke="hsl(228.5, 77.2%, 51.5%)" stroke-width="1.5"></path><path d="M1589.44 342.37L1589.44 342.37" stroke="hsl(228.5, 77.2%, 51.5%)" stroke-width="1.5"></path><path d="M1589.44 342.37L1561.59 496.17" stroke="hsl(228.5, 77.2%, 51.5%)" stroke-width="1.5"></path><path d="M1589.44 342.37L1408.24 233.1" stroke="hsl(228.5, 77.2%, 51.5%)" stroke-width="1.5"></path><path d="M1589.44 342.37L1550.5 111.66" stroke="hsl(228.5, 77.2%, 51.5%)" stroke-width="1.5"></path><path d="M1561.59 496.17L1561.59 496.17" stroke="hsl(228.5, 77.2%, 51.5%)" stroke-width="1.5"></path><path d="M1561.59 496.17L1390.61 549.77" stroke="hsl(228.5, 77.2%, 51.5%)" stroke-width="1.5"></path><path d="M1561.59 496.17L1580.22 262.09" stroke="hsl(228.5, 77.2%, 51.5%)" stroke-width="1.5"></path><circle r="25" cx="668.94" cy="402.04" fill="url(&quot;#SvgjsRadialGradient1001&quot;)"></circle><circle r="25" cx="670.61" cy="547.73" fill="url(&quot;#SvgjsRadialGradient1001&quot;)"></circle><circle r="25" cx="644.04" cy="650.27" fill="url(&quot;#SvgjsRadialGradient1001&quot;)"></circle><circle r="25" cx="798.5" cy="502.03" fill="url(&quot;#SvgjsRadialGradient1001&quot;)"></circle><circle r="25" cx="1282.83" cy="531.35" fill="url(&quot;#SvgjsRadialGradient1001&quot;)"></circle><circle r="25" cx="1390.61" cy="549.77" fill="url(&quot;#SvgjsRadialGradient1001&quot;)"></circle><circle r="25" cx="1550.5" cy="111.66" fill="url(&quot;#SvgjsRadialGradient1001&quot;)"></circle><circle r="5" cx="-87.52" cy="556.61" fill="#8b9ad9"></circle><circle r="5" cx="90.83" cy="551.55" fill="#8b9ad9"></circle><circle r="5" cx="236.53" cy="543.89" fill="#8b9ad9"></circle><circle r="5" cx="210.59" cy="682.62" fill="#8b9ad9"></circle><circle r="5" cx="344.77" cy="645.05" fill="#8b9ad9"></circle><circle r="5" cx="553.16" cy="701.39" fill="#8b9ad9"></circle><circle r="5" cx="861.29" cy="363.04" fill="#8b9ad9"></circle><circle r="5" cx="854.74" cy="655.07" fill="#8b9ad9"></circle><circle r="5" cx="961.38" cy="394.55" fill="#8b9ad9"></circle><circle r="5" cx="954.29" cy="675.38" fill="#8b9ad9"></circle><circle r="5" cx="1136.67" cy="105.56" fill="#8b9ad9"></circle><circle r="5" cx="1158.02" cy="255.19" fill="#8b9ad9"></circle><circle r="5" cx="1120.57" cy="385.46" fill="#8b9ad9"></circle><circle r="5" cx="1135.59" cy="510.82" fill="#8b9ad9"></circle><circle r="5" cx="1138.54" cy="647.15" fill="#8b9ad9"></circle><circle r="5" cx="1262.58" cy="80.89" fill="#8b9ad9"></circle><circle r="5" cx="1240.93" cy="190.65" fill="#8b9ad9"></circle><circle r="5" cx="1282.11" cy="707.6" fill="#8b9ad9"></circle><circle r="5" cx="1439.79" cy="65.76" fill="#8b9ad9"></circle><circle r="5" cx="1408.24" cy="233.1" fill="#8b9ad9"></circle><circle r="5" cx="1419.51" cy="350.22" fill="#8b9ad9"></circle><circle r="5" cx="1418.37" cy="687.78" fill="#8b9ad9"></circle><circle r="5" cx="1580.22" cy="262.09" fill="#8b9ad9"></circle><circle r="5" cx="1589.44" cy="342.37" fill="#8b9ad9"></circle><circle r="5" cx="1561.59" cy="496.17" fill="#8b9ad9"></circle></g><defs><mask id="SvgjsMask1000"><rect width="1440" height="560" fill="#ffffff"></rect></mask><radialGradient id="SvgjsRadialGradient1001"><stop stop-color="#ffffff" offset="0.1"></stop><stop stop-color="#1735b3" offset="0.2"></stop><stop stop-color="rgba(23, 53, 179, 0)" offset="1"></stop></radialGradient></defs></svg>